<svg xmlns="http://www.w3.org/2000/svg" aria-hidden="true" style="position:absolute;width:0;height:0;overflow:hidden">
<defs>
<symbol id="icon-home" viewBox="0 0 32 32">
<path d="M32 18.451 16 6.031 0 18.451v-5.064L16 .967l16 12.42zM28 18v12h-8v-8h-8v8H4V18l12-9z"/>
</symbol>
<symbol id="icon-coin-dollar" viewBox="0 0 32 32">
<path d="M15 2C6.716 2 0 8.716 0 17s6.716 15 15 15c8.284 0 15-6.716 15-15S23.284 2 15 2zm0 27C8.373 29 3 23.627 3 17S8.373 5 15 5s12 5.373 12 12-5.373 12-12 12zm1-13v-4h4v-2h-4V8h-2v2h-4v8h4v4h-4v2h4v2h2v-2h4v-8h-4zm-2 0h-2v-4h2v4zm4 6h-2v-4h2v4z"/>
</symbol>
<symbol id="icon-stopwatch" viewBox="0 0 32 32">
<path d="M16 6.038V4h4V2a2 2 0 0 0-2-2h-6a2 2 0 0 0-2 2v2h4v2.038C7.288 6.549 2 12.157 2 19c0 7.18 5.82 13 13 13s13-5.82 13-13c0-6.843-5.288-12.451-12-12.962zm6.071 20.033C20.182 27.96 17.671 29 15 29s-5.182-1.04-7.071-2.929C6.04 24.182 5 21.671 5 19s1.04-5.182 2.929-7.071a9.927 9.927 0 0 1 6.754-2.923l-.677 9.813c-.058.822.389 1.181.995 1.181s1.053-.36.995-1.181l-.677-9.813a9.933 9.933 0 0 1 6.754 2.923c1.889 1.889 2.929 4.4 2.929 7.071s-1.04 5.182-2.929 7.071z"/>
</symbol>
<symbol id="icon-spinner3" viewBox="0 0 32 32">
<path d="M16 9.472a1.865 1.865 0 0 1-1.865-1.865V2.011a1.865 1.865 0 0 1 3.73 0v5.596c0 1.03-.835 1.865-1.865 1.865zM16 31.155a1.166 1.166 0 0 1-1.166-1.166v-5.596a1.166 1.166 0 1 1 2.332 0v5.596c0 .644-.522 1.166-1.166 1.166zM11.805 10.48a1.749 1.749 0 0 1-1.516-.875L7.491 4.759A1.75 1.75 0 0 1 10.52 3.01l2.798 4.846a1.75 1.75 0 0 1-1.513 2.624zM22.995 29.164a1.05 1.05 0 0 1-.91-.525l-2.798-4.846a1.049 1.049 0 1 1 1.817-1.049l2.798 4.846a1.049 1.049 0 0 1-.908 1.574zM8.729 13.436c-.277 0-.557-.07-.814-.219l-4.846-2.798a1.631 1.631 0 1 1 1.632-2.826l4.846 2.798a1.631 1.631 0 0 1-.818 3.045zM28.114 23.927a.923.923 0 0 1-.465-.125l-4.846-2.798a.932.932 0 1 1 .933-1.615l4.846 2.798a.932.932 0 0 1-.468 1.74zM7.607 17.515H2.011a1.515 1.515 0 1 1 0-3.03h5.596a1.515 1.515 0 1 1 0 3.03zM29.989 16.933h-5.596a.933.933 0 0 1 0-1.866h5.596a.933.933 0 0 1 0 1.866zM3.886 24.394a1.399 1.399 0 0 1-.701-2.611l4.846-2.798a1.398 1.398 0 1 1 1.399 2.423l-4.846 2.798c-.22.127-.461.188-.698.188zM23.27 12.736a.934.934 0 0 1-.468-1.74l4.846-2.798a.933.933 0 0 1 .933 1.615l-4.846 2.798a.925.925 0 0 1-.465.125zM9.004 29.397a1.283 1.283 0 0 1-1.109-1.924l2.798-4.846a1.283 1.283 0 0 1 2.221 1.283l-2.798 4.846a1.281 1.281 0 0 1-1.112.641zM20.196 9.664a.932.932 0 0 1-.806-1.399l2.798-4.846a.932.932 0 1 1 1.615.933l-2.798 4.846a.932.932 0 0 1-.809.466z"/>
</symbol>
<symbol id="icon-magic-wand" viewBox="0 0 32 32">
<path d="M8 6 4 2H2v2l4 4zm2-6h2v4h-2zm8 10h4v2h-4zm2-6V2h-2l-4 4 2 2zM0 10h4v2H0zm10 8h2v4h-2zm-8 0v2h2l4-4-2-2zm29.563 9.563L11.684 7.684a1.505 1.505 0 0 0-2.121 0L7.684 9.563a1.505 1.505 0 0 0 0 2.121l19.879 19.879a1.505 1.505 0 0 0 2.121 0l1.879-1.879a1.505 1.505 0 0 0 0-2.121zM15 17l-6-6 2-2 6 6-2 2z"/>
</symbol>
<symbol id="icon-play3" viewBox="0 0 32 32">
<path d="m6 4 20 12L6 28z"/>
</symbol>
<symbol id="icon-facebook2" viewBox="0 0 32 32">
<path d="M29 0h-26c-1.65 0-3 1.35-3 3v26c0 1.65 1.35 3 3 3h13v-14h-4v-4h4v-2c0-3.306 2.694-6 6-6h4v4h-4c-1.1 0-2 0.9-2 2v2h6l-1 4h-5v14h9c1.65 0 3-1.35 3-3v-26c0-1.65-1.35-3-3-3z"></path>
</symbol>
<symbol id="icon-instagram" viewBox="0 0 32 32">
<path d="M16 2.881c4.275 0 4.781 0.019 6.462 0.094 1.563 0.069 2.406 0.331 2.969 0.55 0.744 0.288 1.281 0.638 1.837 1.194 0.563 0.563 0.906 1.094 1.2 1.838 0.219 0.563 0.481 1.412 0.55 2.969 0.075 1.688 0.094 2.194 0.094 6.463s-0.019 4.781-0.094 6.463c-0.069 1.563-0.331 2.406-0.55 2.969-0.288 0.744-0.637 1.281-1.194 1.837-0.563 0.563-1.094 0.906-1.837 1.2-0.563 0.219-1.413 0.481-2.969 0.55-1.688 0.075-2.194 0.094-6.463 0.094s-4.781-0.019-6.463-0.094c-1.563-0.069-2.406-0.331-2.969-0.55-0.744-0.288-1.281-0.637-1.838-1.194-0.563-0.563-0.906-1.094-1.2-1.837-0.219-0.563-0.481-1.413-0.55-2.969-0.075-1.688-0.094-2.194-0.094-6.463s0.019-4.781 0.094-6.463c0.069-1.563 0.331-2.406 0.55-2.969 0.288-0.744 0.638-1.281 1.194-1.838 0.563-0.563 1.094-0.906 1.838-1.2 0.563-0.219 1.412-0.481 2.969-0.55 1.681-0.075 2.188-0.094 6.463-0.094zM16 0c-4.344 0-4.887 0.019-6.594 0.094-1.7 0.075-2.869 0.35-3.881 0.744-1.056 0.412-1.95 0.956-2.837 1.85-0.894 0.888-1.438 1.781-1.85 2.831-0.394 1.019-0.669 2.181-0.744 3.881-0.075 1.713-0.094 2.256-0.094 6.6s0.019 4.887 0.094 6.594c0.075 1.7 0.35 2.869 0.744 3.881 0.413 1.056 0.956 1.95 1.85 2.837 0.887 0.887 1.781 1.438 2.831 1.844 1.019 0.394 2.181 0.669 3.881 0.744 1.706 0.075 2.25 0.094 6.594 0.094s4.888-0.019 6.594-0.094c1.7-0.075 2.869-0.35 3.881-0.744 1.050-0.406 1.944-0.956 2.831-1.844s1.438-1.781 1.844-2.831c0.394-1.019 0.669-2.181 0.744-3.881 0.075-1.706 0.094-2.25 0.094-6.594s-0.019-4.887-0.094-6.594c-0.075-1.7-0.35-2.869-0.744-3.881-0.394-1.063-0.938-1.956-1.831-2.844-0.887-0.887-1.781-1.438-2.831-1.844-1.019-0.394-2.181-0.669-3.881-0.744-1.712-0.081-2.256-0.1-6.6-0.1v0z"></path>
<path d="M16 7.781c-4.537 0-8.219 3.681-8.219 8.219s3.681 8.219 8.219 8.219 8.219-3.681 8.219-8.219c0-4.537-3.681-8.219-8.219-8.219zM16 21.331c-2.944 0-5.331-2.387-5.331-5.331s2.387-5.331 5.331-5.331c2.944 0 5.331 2.387 5.331 5.331s-2.387 5.331-5.331 5.331z"></path>
<path d="M26.462 7.456c0 1.060-0.859 1.919-1.919 1.919s-1.919-0.859-1.919-1.919c0-1.060 0.859-1.919 1.919-1.919s1.919 0.859 1.919 1.919z"></path>
</symbol>
</defs>
</svg>

